<svg xmlns="http://www.w3.org/2000/svg" width="159.294" height="105.259" viewBox="0 0 159.294 105.259"><defs><style>.a{fill:#00ff95;}.b{fill:#ff0069;}</style></defs><path class="a" d="M31.342,95.366h69.045L64.306,3.658" transform="translate(48.277 5.634)"/><path d="M79.572,5.1h0a7.191,7.191,0,0,0-13.761,0h0L25.755,105.259h93.868ZM53.993,68.076,69.72,27.4c.462-1.214.945-2.627,1.43-4.232s.993-3.366,1.5-5.276a75.855,75.855,0,0,0,3.008,9.435L91.387,68.076l3.775,9.785,5.571,14.391H44.645l5.573-14.391Z" transform="translate(39.671)"/><path class="b" d="M74.11,3.326H5.064L41.145,95.035" transform="translate(7.799 5.123)"/><path d="M40.051,100.158h0a7.191,7.191,0,0,0,13.761,0h.005L93.868,0H0ZM65.629,37.185,49.9,77.861c-.46,1.212-.94,2.624-1.428,4.232s-1,3.366-1.5,5.274a76.96,76.96,0,0,0-3.008-9.432L28.231,37.185,24.458,27.4,18.89,13.009H74.978L69.4,27.4Z"/><line y1="91.709" x2="32.965" transform="translate(48.945 8.449)"/></svg>