<svg xmlns="http://www.w3.org/2000/svg" width="137.297" height="15.762" viewBox="0 0 137.297 15.762"><defs><style>.a{fill:#ff0069;}.b{fill:#00ff95;}</style></defs><path class="a" d="M12.219,1.9H2.531L7.594,14.769"/><path class="b" d="M100.748,14.171h9.688L105.373,1.3"/><path d="M26.65.716V2.265H19.9V6.933h5.462V8.424H19.9v4.8H26.65v1.55H17.991V.716Z"/><path d="M31.474,8.9v5.865H29.582V.716h3.971a8.721,8.721,0,0,1,2.305.269,4.412,4.412,0,0,1,1.6.78A3.121,3.121,0,0,1,38.4,3a4.1,4.1,0,0,1,.3,1.613A4.013,4.013,0,0,1,38.466,6a3.657,3.657,0,0,1-.681,1.163,4.08,4.08,0,0,1-1.089.877,5.369,5.369,0,0,1-1.456.549,2.016,2.016,0,0,1,.628.6l4.1,5.581H38.28a.833.833,0,0,1-.765-.4L33.867,9.346a1.055,1.055,0,0,0-.363-.339,1.3,1.3,0,0,0-.588-.1Zm0-1.383h1.991a4.816,4.816,0,0,0,1.466-.2,2.948,2.948,0,0,0,1.059-.569,2.352,2.352,0,0,0,.643-.877,2.882,2.882,0,0,0,.215-1.128,2.243,2.243,0,0,0-.828-1.893,4.014,4.014,0,0,0-2.467-.637H31.474Z"/><path d="M44.272,14.769h-1.9V.716h1.9Z"/><path d="M57.609.716v1.6h-4.54V14.769h-1.9V2.314h-4.56V.716Z"/><path d="M71.7,7.747a8.119,8.119,0,0,1-.5,2.9,6.648,6.648,0,0,1-1.413,2.27A6.306,6.306,0,0,1,67.6,14.391a7.874,7.874,0,0,1-5.654,0,6.327,6.327,0,0,1-2.187-1.476,6.645,6.645,0,0,1-1.412-2.27,8.119,8.119,0,0,1-.5-2.9,8.119,8.119,0,0,1,.5-2.9,6.7,6.7,0,0,1,1.412-2.275,6.352,6.352,0,0,1,2.187-1.486,7.818,7.818,0,0,1,5.654,0,6.33,6.33,0,0,1,2.191,1.486A6.7,6.7,0,0,1,71.2,4.849,8.119,8.119,0,0,1,71.7,7.747Zm-1.952,0A7.122,7.122,0,0,0,69.4,5.423a4.9,4.9,0,0,0-1-1.741,4.349,4.349,0,0,0-1.569-1.093,5.716,5.716,0,0,0-4.109,0,4.393,4.393,0,0,0-1.574,1.093,4.864,4.864,0,0,0-1.005,1.741,7.122,7.122,0,0,0-.353,2.324,7.078,7.078,0,0,0,.353,2.319A4.876,4.876,0,0,0,61.144,11.8a4.347,4.347,0,0,0,1.574,1.089,5.787,5.787,0,0,0,4.109,0A4.3,4.3,0,0,0,68.4,11.8a4.912,4.912,0,0,0,1-1.736A7.078,7.078,0,0,0,69.749,7.747Z"/><path d="M84.2,11.866a.4.4,0,0,1,.285.127l.745.814a6.019,6.019,0,0,1-2.094,1.56,7.146,7.146,0,0,1-2.966.558,7,7,0,0,1-2.756-.524,6.052,6.052,0,0,1-2.109-1.471,6.663,6.663,0,0,1-1.353-2.27,8.494,8.494,0,0,1-.48-2.913,7.96,7.96,0,0,1,.515-2.913A6.642,6.642,0,0,1,75.437,2.56a6.468,6.468,0,0,1,2.231-1.477A7.611,7.611,0,0,1,80.537.559,6.4,6.4,0,0,1,85.2,2.344l-.617.872a.656.656,0,0,1-.157.162.429.429,0,0,1-.255.064.5.5,0,0,1-.27-.093c-.1-.062-.207-.139-.338-.231s-.285-.189-.461-.294a4.164,4.164,0,0,0-.628-.294,5.233,5.233,0,0,0-.843-.231,5.893,5.893,0,0,0-1.108-.092,5.341,5.341,0,0,0-2.065.387,4.623,4.623,0,0,0-1.613,1.1,5.024,5.024,0,0,0-1.054,1.745,6.654,6.654,0,0,0-.378,2.305,6.776,6.776,0,0,0,.378,2.344,5.193,5.193,0,0,0,1.03,1.741,4.337,4.337,0,0,0,1.544,1.083,4.929,4.929,0,0,0,1.922.373,7.8,7.8,0,0,0,1.128-.074,4.691,4.691,0,0,0,.927-.23,3.906,3.906,0,0,0,.794-.4,6.277,6.277,0,0,0,.741-.573A.5.5,0,0,1,84.2,11.866Z"/><path d="M89.823,8.9v5.865H87.93V.716H91.9a8.708,8.708,0,0,1,2.3.269,4.425,4.425,0,0,1,1.6.78A3.118,3.118,0,0,1,96.746,3a4.1,4.1,0,0,1,.3,1.613A4.036,4.036,0,0,1,96.815,6a3.678,3.678,0,0,1-.682,1.163,4.076,4.076,0,0,1-1.088.877,5.381,5.381,0,0,1-1.456.549,2.024,2.024,0,0,1,.627.6l4.1,5.581H96.629a.831.831,0,0,1-.765-.4L92.216,9.346a1.064,1.064,0,0,0-.363-.339,1.3,1.3,0,0,0-.588-.1Zm0-1.383h1.99a4.822,4.822,0,0,0,1.467-.2,2.948,2.948,0,0,0,1.059-.569,2.361,2.361,0,0,0,.642-.877A2.864,2.864,0,0,0,95.2,4.746a2.241,2.241,0,0,0-.829-1.893A4.009,4.009,0,0,0,91.9,2.216H89.823Z"/><path d="M123.195,11.866a.393.393,0,0,1,.284.127l.746.814a6.028,6.028,0,0,1-2.094,1.56,7.151,7.151,0,0,1-2.967.558,6.993,6.993,0,0,1-2.755-.524A6.042,6.042,0,0,1,114.3,12.93a6.647,6.647,0,0,1-1.353-2.27,8.47,8.47,0,0,1-.48-2.913,7.98,7.98,0,0,1,.514-2.913,6.659,6.659,0,0,1,1.447-2.274,6.459,6.459,0,0,1,2.231-1.477,7.606,7.606,0,0,1,2.868-.524,6.758,6.758,0,0,1,2.673.481,6.736,6.736,0,0,1,2,1.3l-.617.872a.659.659,0,0,1-.158.162.425.425,0,0,1-.255.064.5.5,0,0,1-.269-.093c-.1-.062-.208-.139-.338-.231s-.285-.189-.461-.294a4.164,4.164,0,0,0-.628-.294,5.219,5.219,0,0,0-.844-.231,5.878,5.878,0,0,0-1.108-.092,5.34,5.34,0,0,0-2.064.387,4.623,4.623,0,0,0-1.613,1.1,5.009,5.009,0,0,0-1.054,1.745,6.654,6.654,0,0,0-.378,2.305,6.776,6.776,0,0,0,.378,2.344,5.191,5.191,0,0,0,1.029,1.741,4.35,4.35,0,0,0,1.545,1.083,4.929,4.929,0,0,0,1.922.373,7.8,7.8,0,0,0,1.128-.074,4.664,4.664,0,0,0,.926-.23,3.888,3.888,0,0,0,.795-.4,6.19,6.19,0,0,0,.74-.573A.5.5,0,0,1,123.195,11.866Z"/><path d="M132.139,9.179v5.59h-1.893V9.179L125.1.716h1.667a.59.59,0,0,1,.4.127,1.208,1.208,0,0,1,.256.314l3.216,5.462a6.846,6.846,0,0,1,.329.648q.132.3.24.6.108-.3.235-.608a5.335,5.335,0,0,1,.324-.638l3.207-5.462a1.256,1.256,0,0,1,.24-.3.557.557,0,0,1,.4-.142H137.3Z"/><path d="M106.308.716h0a1.009,1.009,0,0,0-1.931,0h0L98.757,14.769h13.17Zm-3.589,8.835,2.206-5.707c.065-.17.133-.368.2-.594s.139-.472.211-.74a10.578,10.578,0,0,0,.422,1.324l2.206,5.717.53,1.373.781,2.019h-7.869l.782-2.019Z"/><path d="M6.346,14.769h0a1.009,1.009,0,0,0,1.93,0h0L13.9.716H.727ZM9.935,5.933,7.727,11.64q-.1.255-.2.594t-.211.74a10.764,10.764,0,0,0-.421-1.324L4.688,5.933,4.158,4.56,3.377,2.541h7.869L10.464,4.56Z"/><path d="M13.22.716a1.521,1.521,0,0,0-.265.021V15.762h1.667V.716Z"/><path d="M.266.716A1.533,1.533,0,0,0,0,.737V15.762H1.668V.716Z"/><line y1="12.867" x2="4.625" transform="translate(7.594 1.901)"/></svg>