<svg xmlns="http://www.w3.org/2000/svg" width="32" height="22.045" viewBox="0 0 32 22.045"><defs><style>.a{fill:#fff;}</style></defs><g transform="translate(0 -66.906)"><path class="a" d="M28.374,76.707a3.882,3.882,0,0,0,3.485-2.074,5.729,5.729,0,0,1-3.772.419c-.054-.261-.115-.509-.175-.733-.847-3.11-3.746-5.615-6.785-5.312.246-.1.5-.192.744-.275.334-.12,2.3-.439,1.988-1.132-.26-.609-2.658.46-3.109.6.6-.224,1.581-.61,1.687-1.294a4.759,4.759,0,0,0-2.5,1.184,1.72,1.72,0,0,0,.48-.95c-2.435,1.555-3.857,4.691-5.008,7.733a11.932,11.932,0,0,0-2.423-1.949,63.174,63.174,0,0,0-8.21-3.614c-.116,1.252.619,2.916,2.738,4.023a6.7,6.7,0,0,0-1.97.236c.273,1.434,1.166,2.616,3.584,3.187a2.928,2.928,0,0,0-2.193.866,3.714,3.714,0,0,0,3.94,1.93c-2.456,1.058-1,3.018,1,2.726A8.485,8.485,0,0,1,0,82.6c8.057,10.979,25.572,6.493,28.182-4.082A4.848,4.848,0,0,0,32,77.074,7.79,7.79,0,0,1,28.374,76.707Z"/></g></svg>