<svg xmlns="http://www.w3.org/2000/svg" width="32" height="32" viewBox="0 0 32 32"><defs><style>.a{fill:#fbbb00;}.b{fill:#518ef8;}.c{fill:#28b446;}.d{fill:#f14336;}</style></defs><path class="a" d="M7.092,148.964l-1.114,4.158-4.071.086a16.028,16.028,0,0,1-.118-14.941h0l3.625.664L7,142.535a9.549,9.549,0,0,0,.09,6.429Z" transform="translate(0 -129.626)"/><path class="b" d="M277,208.176a15.994,15.994,0,0,1-5.7,15.466h0l-4.565-.233-.646-4.033a9.536,9.536,0,0,0,4.1-4.869h-8.556v-6.33H277Z" transform="translate(-245.276 -195.165)"/><path class="c" d="M54.618,318.547h0a16.005,16.005,0,0,1-24.11-4.895l5.185-4.244a9.516,9.516,0,0,0,13.712,4.872Z" transform="translate(-28.602 -290.071)"/><path class="d" d="M53.048,3.684,47.864,7.927a9.515,9.515,0,0,0-14.027,4.982L28.625,8.642h0A16,16,0,0,1,53.048,3.684Z" transform="translate(-26.835)"/></svg>