<svg xmlns="http://www.w3.org/2000/svg" width="32" height="32" viewBox="0 0 32 32"><defs><style>.a{fill:#fde494;}.b{fill:#fea150;}.c{fill:#ff5d4a;}.d{fill:#e45261;}.e{fill:#ff4d95;}.f{fill:#cb319c;}.g{fill:#8a3293;}.h{fill:#523494;}.i{fill:#2d2d87;}</style></defs><path class="a" d="M7.358,410.654h3.819l-6.026-3.862L.2,403.9A7.181,7.181,0,0,0,7.358,410.654Z" transform="translate(-0.186 -378.654)"/><path class="b" d="M20.965,343.8l-4.313-1.1H7.172A3.867,3.867,0,0,1,3.31,338.84v-2.117l-1.655-1.776L0,335.239v3.6c0,.14,0,.278.012.416l10.979,6.756H24.039Z" transform="translate(0 -314.012)"/><path class="c" d="M277.393,440.14a3.85,3.85,0,0,1-2.776,1.181h-8.175l7.387,3.31h.788a7.174,7.174,0,0,0,6.1-3.408l-1.689-1.006Z" transform="translate(-249.789 -412.631)"/><path class="d" d="M442.741,319.481v4.452a3.848,3.848,0,0,1-1.086,2.681l3.327,1.083a7.13,7.13,0,0,0,1.07-3.765v-3.925l-1.712-.962Z" transform="translate(-414.052 -299.105)"/><path class="e" d="M462.344,142.894l-1.763-.42-1.548.927v10.545l3.31.526Z" transform="translate(-430.344 -133.569)"/><path class="f" d="M321.919,8.306a7.183,7.183,0,0,0-6.133-7.1l-4.34,1.806-2.2,1.429h5.5a3.867,3.867,0,0,1,3.862,3.862v2.659l3.31-.507Z" transform="translate(-289.919 -1.133)"/><path class="g" d="M207.588,0l-4.105,1.54L200.245,3.31h6.813L213.6.075A7.2,7.2,0,0,0,212.557,0Z" transform="translate(-187.73)"/><path class="c" d="M138.839,343.178a9.334,9.334,0,0,0,3.264-.586l-5.376-2.44-5.7-1.166A9.378,9.378,0,0,0,138.839,343.178Z" transform="translate(-122.839 -317.798)"/><path class="d" d="M120.513,267.925a5.515,5.515,0,0,1-9.876-1.57l-1.48-.925-2.553.284a9.321,9.321,0,0,0,1.527,4.314l11.075,3.607a9.431,9.431,0,0,0,5.341-5.067l-1.985-1.005Z" transform="translate(-99.941 -248.84)"/><g transform="translate(6.621 10.269)"><path class="e" d="M109.793,197.3a5.492,5.492,0,0,1,1.328-3.584l-2.354-.329-2.391,1.056a9.342,9.342,0,0,0-.446,2.858c0,.294.015.585.042.873l4.033.641A5.5,5.5,0,0,1,109.793,197.3Z" transform="translate(-105.931 -191.568)"/><path class="e" d="M309.279,170.033a9.328,9.328,0,0,0-1.714-5.4l-2.337-.332-2.4,1.057a5.51,5.51,0,0,1,1.645,7.759l4.033.641A9.323,9.323,0,0,0,309.279,170.033Z" transform="translate(-290.52 -164.302)"/></g><g transform="translate(7.066 4.966)"><path class="f" d="M122,109.793a5.483,5.483,0,0,1,2.927.843l4.738-.726a9.376,9.376,0,0,0-16.6,2.542l4.744-.727A5.506,5.506,0,0,1,122,109.793Z" transform="translate(-113.063 -104.276)"/><path class="f" d="M364.138,83.863a2.207,2.207,0,1,0-2.207-2.207A2.209,2.209,0,0,0,364.138,83.863Z" transform="translate(-346.377 -79.449)"/></g><path class="c" d="M3.31,297.394,1.717,296.6,0,296.316v2.707l3.31,1.484Z" transform="translate(0 -277.796)"/><path class="d" d="M0,251.635v2.706l3.31,1.078v-3.258l-1.72-.618Z" transform="translate(0 -235.822)"/><path class="e" d="M3.31,219.248l-1.7-.015L0,219.755v1.589l3.31.526Z" transform="translate(0 -205.531)"/><path class="f" d="M3.31,179.757l-1.753.178L0,181.395v1.352l3.31-.507Z" transform="translate(0 -168.522)"/><path class="g" d="M0,124.774l3.31-1.638v-3.775l-1.942.186L0,120.854Z" transform="translate(0 -111.902)"/><path class="h" d="M12.816,0,5.263,2.905.087,6.058A7.2,7.2,0,0,0,0,7.172v1.78L3.31,7.46V7.172A3.866,3.866,0,0,1,7.172,3.31h5.343L19.858,0Z"/><path class="i" d="M8.473,0A7.184,7.184,0,0,0,1.387,6.058L14.117,0Z" transform="translate(-1.3)"/></svg>