<svg xmlns="http://www.w3.org/2000/svg" width="39.294" height="25.965" viewBox="0 0 39.294 25.965"><defs><style>.a{fill:#00ff95;}.b{fill:#ff0069;}</style></defs><path class="a" d="M31.342,26.28H48.374l-8.9-22.622" transform="translate(-11.702 -1.366)"/><path d="M39.03,1.258h0a1.774,1.774,0,0,0-3.395,0h0l-9.88,24.706H48.91Zm-6.31,15.534L36.6,6.759c.114-.3.233-.648.353-1.044s.245-.83.371-1.3a18.711,18.711,0,0,0,.742,2.327l3.879,10.052.931,2.414,1.374,3.55H30.415l1.375-3.55Z" transform="translate(-9.616)"/><path class="b" d="M22.1,3.326H5.063l8.9,22.622" transform="translate(-1.891 -1.242)"/><path d="M9.88,24.706h0a1.774,1.774,0,0,0,3.395,0h0L23.155,0H0Zm6.31-15.534-3.88,10.034c-.113.3-.232.647-.352,1.044s-.246.83-.371,1.3a18.984,18.984,0,0,0-.742-2.327L6.964,9.173,6.033,6.759,4.66,3.209H18.5L17.12,6.759Z"/><line y1="22.622" x2="8.132" transform="translate(12.074 2.084)"/></svg>